<svg width="36" height="35" viewBox="0 0 36 35" fill="none" xmlns="http://www.w3.org/2000/svg">
<rect y="0.373047" width="36" height="34" rx="5" fill="#C6C031"/>
<path d="M17.9983 11.4802C15.8012 11.4802 13.9949 12.4713 12.6099 13.7469C11.3126 14.9456 10.4162 16.3686 9.95791 17.373C10.4162 18.3775 11.3126 19.8005 12.6066 20.9992C13.9949 22.2748 15.8012 23.2659 17.9983 23.2659C20.1954 23.2659 22.0016 22.2748 23.3866 20.9992C24.684 19.8005 25.5803 18.3775 26.0386 17.373C25.5803 16.3686 24.684 14.9456 23.39 13.7469C22.0016 12.4713 20.1954 11.4802 17.9983 11.4802ZM11.508 12.5717C13.0952 11.1052 15.2755 9.87305 17.9983 9.87305C20.7211 9.87305 22.9013 11.1052 24.4885 12.5717C26.0656 14.0282 27.1203 15.7659 27.6224 16.9612C27.7336 17.2257 27.7336 17.5204 27.6224 17.7849C27.1203 18.9802 26.0656 20.7213 24.4885 22.1744C22.9013 23.6409 20.7211 24.873 17.9983 24.873C15.2755 24.873 13.0952 23.6409 11.508 22.1744C9.93095 20.7213 8.8762 18.9802 8.37747 17.7849C8.26627 17.5204 8.26627 17.2257 8.37747 16.9612C8.8762 15.7659 9.93095 14.0248 11.508 12.5717ZM17.9983 20.0516C19.4877 20.0516 20.6941 18.853 20.6941 17.373C20.6941 15.8931 19.4877 14.6945 17.9983 14.6945C17.9747 14.6945 17.9545 14.6945 17.9309 14.6945C17.9747 14.8652 17.9983 15.046 17.9983 15.2302C17.9983 16.4121 17.0311 17.373 15.8416 17.373C15.6563 17.373 15.4743 17.3496 15.3024 17.3061C15.3024 17.3295 15.3024 17.3496 15.3024 17.373C15.3024 18.853 16.5088 20.0516 17.9983 20.0516ZM17.9983 13.0873C19.1422 13.0873 20.2394 13.5389 21.0483 14.3426C21.8572 15.1463 22.3116 16.2364 22.3116 17.373C22.3116 18.5097 21.8572 19.5998 21.0483 20.4035C20.2394 21.2072 19.1422 21.6588 17.9983 21.6588C16.8543 21.6588 15.7572 21.2072 14.9483 20.4035C14.1394 19.5998 13.6849 18.5097 13.6849 17.373C13.6849 16.2364 14.1394 15.1463 14.9483 14.3426C15.7572 13.5389 16.8543 13.0873 17.9983 13.0873Z" fill="#F5F5F5"/>
</svg>
