<svg width="32" height="31" viewBox="0 0 32 31" fill="none" xmlns="http://www.w3.org/2000/svg">
<path d="M17.7206 1.27648L17.7213 1.27801L21.5003 9.06728L21.6156 9.30503L21.877 9.34366L30.3212 10.5916C30.3214 10.5917 30.3216 10.5917 30.3218 10.5917C30.8387 10.6696 31.2664 11.0321 31.4311 11.5314C31.5947 12.0273 31.4613 12.577 31.0899 12.9447L31.0897 12.9449L24.9657 19.015L24.7814 19.1977L24.8247 19.4536L26.2761 28.0304C26.2762 28.0305 26.2762 28.0305 26.2762 28.0306C26.3623 28.5486 26.1472 29.0735 25.7168 29.387C25.2931 29.6957 24.729 29.7329 24.2595 29.4851C24.2591 29.4849 24.2588 29.4847 24.2585 29.4845L16.7202 25.4527L16.4844 25.3265L16.2486 25.4527L8.71037 29.4845C8.71005 29.4847 8.70973 29.4849 8.70941 29.4851C8.24259 29.7314 7.67671 29.6921 7.24935 29.3851C6.8233 29.079 6.60625 28.5506 6.69264 28.0307C6.69265 28.0306 6.69267 28.0305 6.69268 28.0304L8.13828 19.4532L8.18137 19.1976L7.99722 19.015L1.87327 12.9449L1.87308 12.9447C1.50398 12.5793 1.37207 12.0289 1.53304 11.5277C1.69153 11.0342 2.12148 10.6701 2.64096 10.5918C2.64121 10.5917 2.64146 10.5917 2.64171 10.5916L11.0801 9.34365L11.3415 9.305L11.4568 9.06728L15.2349 1.27979C15.235 1.27956 15.2351 1.27933 15.2353 1.2791C15.4698 0.801137 15.949 0.5 16.4785 0.5C17.0107 0.5 17.493 0.803323 17.7206 1.27648Z" fill="#E2E2E2" stroke="#CACACA"/>
</svg>
