<svg width="32" height="31" viewBox="0 0 32 31" fill="none" xmlns="http://www.w3.org/2000/svg">
<path d="M17.9298 1.05976C17.6183 0.412131 16.96 0 16.2371 0C15.5143 0 14.8619 0.412131 14.5445 1.05976L10.7655 8.84903L2.32601 10.0972C1.62076 10.2032 1.03305 10.6977 0.815595 11.3748C0.598142 12.0519 0.774455 12.7996 1.27989 13.3L7.40384 19.3701L5.95807 27.9483C5.84053 28.6549 6.13438 29.3731 6.71622 29.7912C7.29805 30.2092 8.06795 30.2622 8.70268 29.9266L16.243 25.8936L23.7834 29.9266C24.4181 30.2622 25.188 30.2151 25.7698 29.7912C26.3517 29.3672 26.6455 28.6549 26.528 27.9483L25.0763 19.3701L31.2003 13.3C31.7057 12.7996 31.8879 12.0519 31.6646 11.3748C31.4412 10.6977 30.8594 10.2032 30.1541 10.0972L21.7087 8.84903L17.9298 1.05976Z" fill="#C6C031"/>
</svg>
